<?xml version="1.0" standalone="no"?>
<!DOCTYPE svg PUBLIC "-//W3C//DTD SVG 20010904//EN"
 "http://www.w3.org/TR/2001/REC-SVG-20010904/DTD/svg10.dtd">
<svg version="1.0" xmlns="http://www.w3.org/2000/svg"
 width="512.000000pt" height="512.000000pt" viewBox="0 0 512.000000 512.000000"
 preserveAspectRatio="xMidYMid meet">
<metadata>
Created by potrace 1.15, written by Peter Selinger 2001-2017
</metadata>
<g transform="translate(0.000000,512.000000) scale(0.100000,-0.100000)"
fill="#000000" stroke="none">
<path d="M3519 4907 c-69 -47 -100 -128 -79 -207 8 -30 27 -57 66 -94 72 -67
98 -115 98 -186 0 -102 -82 -209 -190 -249 -92 -34 -105 -42 -143 -100 l-36
-54 -1 -161 c0 -128 3 -165 14 -178 35 -41 138 -5 199 68 49 60 68 70 99 49
16 -10 24 -25 24 -44 0 -43 -83 -130 -167 -174 -38 -19 -79 -47 -93 -62 -23
-25 -25 -34 -25 -128 -1 -82 -4 -107 -19 -129 -26 -40 -109 -76 -200 -87 -65
-8 -83 -14 -108 -38 -59 -55 -72 -118 -37 -189 28 -58 72 -84 141 -84 74 0
111 27 154 109 59 113 100 142 203 144 128 1 190 -55 247 -226 31 -92 40 -110
63 -119 19 -7 32 -6 51 4 20 11 31 35 58 128 18 63 44 132 57 152 44 67 110
119 192 151 40 15 42 15 67 -4 14 -11 26 -29 26 -39 0 -20 -10 -29 -108 -91
-62 -39 -63 -40 -60 -81 2 -31 10 -46 30 -61 l27 -20 83 27 c158 53 301 43
345 -23 20 -29 23 -47 23 -125 0 -73 4 -97 20 -124 29 -47 76 -72 135 -72 109
0 174 85 153 200 -11 58 -40 86 -118 113 -50 17 -70 30 -88 57 -68 101 43 237
209 256 44 5 64 12 74 28 21 29 20 35 -24 94 -38 50 -71 148 -57 171 14 22 7
260 -10 322 -9 35 -17 102 -18 149 -1 103 16 137 95 190 68 46 91 78 96 137 7
83 -48 153 -134 169 -73 14 -160 -47 -180 -125 -3 -13 0 -53 7 -88 20 -104
-14 -169 -111 -212 -128 -57 -305 -26 -286 51 8 30 43 47 77 37 74 -21 186 -2
208 36 15 28 4 51 -48 94 -56 48 -83 99 -104 199 -24 120 -41 126 -137 52 -77
-60 -132 -80 -216 -80 -102 0 -181 43 -229 126 -21 35 -29 69 -39 154 -14 123
-35 163 -98 194 -52 24 -136 21 -178 -7z m355 -842 c83 -39 86 -158 6 -200
-113 -58 -224 80 -138 173 41 43 80 51 132 27z m707 -320 c33 -17 69 -69 69
-98 0 -33 -29 -82 -59 -100 -76 -45 -172 12 -171 100 1 37 20 70 56 94 35 23
65 24 105 4z m-671 -164 c37 -27 53 -83 36 -125 -20 -47 -61 -76 -108 -76 -32
0 -47 7 -74 34 -100 100 32 251 146 167z"/>
<path d="M1200 4838 c-81 -55 -103 -148 -57 -238 30 -61 76 -90 141 -90 111 1
176 63 176 170 0 108 -58 171 -164 178 -51 3 -66 0 -96 -20z"/>
<path d="M1674 3990 c-68 -27 -133 -85 -169 -151 -24 -45 -30 -69 -33 -140 -4
-78 -2 -92 23 -148 35 -77 111 -150 186 -177 42 -15 55 -25 62 -49 6 -16 12
-185 14 -375 5 -418 4 -422 -77 -463 -42 -21 -79 -29 -158 -37 -168 -16 -296
-67 -380 -153 l-44 -44 -66 13 c-106 21 -245 81 -325 141 -36 26 -39 32 -41
83 -5 100 -59 185 -150 233 -61 32 -174 31 -240 -3 -199 -101 -190 -390 14
-483 92 -42 227 -19 291 49 l21 23 55 -25 c130 -57 257 -162 333 -276 47 -71
46 -81 -15 -218 -52 -116 -68 -183 -68 -275 1 -146 56 -273 151 -351 27 -23
55 -43 62 -46 29 -9 -52 -189 -148 -329 -44 -64 -47 -66 -82 -62 -92 13 -200
-61 -228 -156 -26 -85 10 -197 82 -255 35 -29 43 -31 119 -31 69 0 89 4 126
25 82 46 123 173 86 270 -25 64 -22 82 25 164 53 92 141 183 211 218 l53 26
52 -47 c100 -91 210 -126 376 -119 116 5 184 29 251 87 l37 33 44 -26 c46 -27
91 -82 144 -177 32 -56 32 -56 12 -74 -11 -10 -32 -43 -47 -74 -55 -112 -28
-250 63 -331 58 -51 109 -70 189 -70 87 0 153 29 207 88 54 60 71 105 72 192
0 65 -4 82 -29 129 -58 106 -163 160 -286 147 l-58 -6 -31 45 c-73 106 -112
236 -95 314 5 25 14 32 58 46 81 26 180 89 235 150 124 136 162 329 97 501
-29 78 -49 107 -131 195 -79 84 -111 148 -135 268 -32 158 -91 225 -240 275
-41 13 -104 27 -141 31 l-66 6 -19 72 c-15 61 -18 111 -17 337 0 174 4 288 13
332 12 63 15 68 62 100 91 62 140 155 141 269 1 126 -66 240 -176 296 -71 37
-197 42 -272 13z m229 -123 c44 -26 86 -81 102 -134 l6 -23 -215 0 -215 0 9
32 c39 135 191 196 313 125z m-1415 -1264 c46 -35 65 -77 60 -133 -9 -89 -78
-147 -166 -137 -169 19 -183 259 -17 297 43 10 85 1 123 -27z m1593 -169 c116
-35 169 -80 187 -162 l10 -42 -515 0 c-561 0 -554 -1 -440 52 64 30 121 44
212 53 89 8 164 29 237 66 32 16 75 33 96 38 60 14 154 12 213 -5z m-429 -404
c119 -33 165 -179 86 -274 -67 -81 -176 -89 -252 -18 -56 53 -70 125 -37 197
22 49 48 73 98 91 47 16 58 17 105 4z m549 -211 c53 -57 46 -138 -14 -167 -97
-47 -167 95 -90 180 25 28 71 23 104 -13z m-354 -355 c53 -33 75 -107 50 -167
-40 -95 -183 -104 -237 -14 -73 119 69 256 187 181z"/>
<path d="M721 3939 c-68 -21 -131 -72 -164 -134 -29 -54 -31 -183 -3 -235 45
-86 123 -139 216 -147 109 -10 201 40 255 138 25 45 29 65 29 124 0 105 -51
188 -145 236 -46 23 -141 32 -188 18z m147 -129 c51 -31 74 -76 69 -136 -6
-83 -60 -135 -141 -136 -147 -3 -207 192 -84 271 43 27 112 28 156 1z"/>
<path d="M904 3041 c-42 -19 -74 -67 -74 -110 0 -113 143 -173 222 -94 22 22
32 43 35 75 12 107 -84 175 -183 129z"/>
<path d="M3095 2621 c-66 -16 -107 -47 -208 -155 -58 -62 -135 -133 -171 -157
-111 -75 -135 -162 -62 -235 46 -46 95 -53 160 -24 28 12 72 27 98 33 42 10
54 8 113 -16 90 -37 160 -37 240 2 114 55 179 152 179 271 0 139 -80 238 -221
275 -62 16 -81 17 -128 6z m152 -136 c73 -44 102 -131 69 -210 l-15 -35 -236
0 -236 0 60 56 c34 31 83 84 111 119 27 34 64 70 82 78 50 25 114 21 165 -8z"/>
<path d="M4634 2296 c-101 -45 -99 -180 3 -223 45 -18 95 -8 133 27 51 48 41
158 -18 189 -33 18 -87 21 -118 7z m91 -10 c90 -38 90 -164 0 -202 -130 -54
-219 137 -93 199 41 20 50 21 93 3z"/>
<path d="M3965 1747 c-190 -90 -229 -342 -74 -481 145 -131 374 -85 461 93 31
62 32 176 2 242 -51 109 -132 162 -259 167 -68 2 -88 -1 -130 -21z"/>
<path d="M389 1300 c-39 -21 -69 -71 -69 -115 0 -41 39 -102 76 -120 93 -44
194 18 194 120 0 105 -106 165 -201 115z"/>
<path d="M3050 1172 c-51 -28 -75 -76 -66 -137 14 -90 92 -135 179 -101 54 20
77 58 77 124 0 58 -25 97 -76 118 -45 19 -73 18 -114 -4z"/>
<path d="M4485 648 c-51 -29 -60 -89 -21 -135 34 -39 98 -39 132 0 33 39 31
81 -5 118 -31 31 -70 37 -106 17z"/>
</g>
</svg>
